HIERARCHY
ROOT Hips
{
	OFFSET 0.000000 71.427986 0.000000
	CHANNELS 6 Xposition Yposition Zposition Xrotation Yrotation Zrotation
	JOINT Pelvis
	{
		OFFSET 0.000000 0.000000 0.000000
		CHANNELS 3 Xrotation Yrotation Zrotation
		JOINT LeftUpLeg
		{
			OFFSET 6.797100 -2.508499 -1.318700
			CHANNELS 3 Xrotation Yrotation Zrotation
			JOINT LeftLeg
			{
				OFFSET 0.069008 -29.241863 0.690200
				CHANNELS 3 Xrotation Yrotation Zrotation
				JOINT LeftFoot
				{
					OFFSET -0.069008 -29.568123 -0.266800
					CHANNELS 3 Xrotation Yrotation Zrotation
					JOINT LeftToeBase
					{
						OFFSET 3.145500 -8.631000 16.059900
						CHANNELS 3 Xrotation Yrotation Zrotation
						End Site
						{
							OFFSET 0.000000 18.501587 0.000000
						}
					}
				}
			}
			JOINT Left_ShortSleeve
			{
				OFFSET 0.265923 -10.480953 1.153800
				CHANNELS 3 Xrotation Yrotation Zrotation
				End Site
				{
					OFFSET 1.725763 19.823879 0.000000
				}
			}
		}
		JOINT RightUpLeg
		{
			OFFSET -6.797100 -2.508499 -1.318700
			CHANNELS 3 Xrotation Yrotation Zrotation
			JOINT RightLeg
			{
				OFFSET -0.082453 -29.241932 0.688000
				CHANNELS 3 Xrotation Yrotation Zrotation
				JOINT RightFoot
				{
					OFFSET 0.082453 -29.568058 -0.264600
					CHANNELS 3 Xrotation Yrotation Zrotation
					JOINT RightToeBase
					{
						OFFSET -3.115300 -8.682800 16.113400
						CHANNELS 3 Xrotation Yrotation Zrotation
						End Site
						{
							OFFSET 0.000000 18.567114 0.000000
						}
					}
				}
			}
			JOINT Right_ShortSleeve
			{
				OFFSET -0.265923 -10.480953 1.153800
				CHANNELS 3 Xrotation Yrotation Zrotation
				End Site
				{
					OFFSET -1.725766 19.823910 0.000000
				}
			}
		}
	}
	JOINT Spine
	{
		OFFSET 0.000000 13.368103 0.470500
		CHANNELS 3 Xrotation Yrotation Zrotation
		JOINT Spine1
		{
			OFFSET 0.147000 13.837402 0.538800
			CHANNELS 3 Xrotation Yrotation Zrotation
			JOINT Spine2
			{
				OFFSET 0.168000 16.242897 -1.435500
				CHANNELS 3 Xrotation Yrotation Zrotation
				JOINT Neck
				{
					OFFSET 0.217200 18.631500 -1.679100
					CHANNELS 3 Xrotation Yrotation Zrotation
					JOINT Head
					{
						OFFSET 0.000000 6.599396 1.385900
						CHANNELS 3 Xrotation Yrotation Zrotation
						JOINT Hat
						{
							OFFSET -0.532200 27.220596 -10.096100
							CHANNELS 3 Xrotation Yrotation Zrotation
							End Site
							{
								OFFSET 0.000000 22.029861 0.000000
							}
						}
						JOINT HairD
						{
							OFFSET -10.777400 17.437393 -1.325900
							CHANNELS 3 Xrotation Yrotation Zrotation
							JOINT HairD1
							{
								OFFSET -3.290299 -11.051193 1.062200
								CHANNELS 3 Xrotation Yrotation Zrotation
								End Site
								{
									OFFSET 0.000000 11.579437 0.000000
								}
							}
						}
						JOINT HairB
						{
							OFFSET -10.777400 17.437393 1.467900
							CHANNELS 3 Xrotation Yrotation Zrotation
							JOINT HairB1
							{
								OFFSET -1.561200 -12.956299 3.590200
								CHANNELS 3 Xrotation Yrotation Zrotation
								End Site
								{
									OFFSET 0.000000 13.534866 0.000000
								}
							}
						}
						JOINT HairA
						{
							OFFSET 9.713100 17.437393 1.467900
							CHANNELS 3 Xrotation Yrotation Zrotation
							JOINT HairA1
							{
								OFFSET 1.561200 -12.956299 3.590200
								CHANNELS 3 Xrotation Yrotation Zrotation
								End Site
								{
									OFFSET 0.000000 13.534866 0.000000
								}
							}
						}
						JOINT HairC
						{
							OFFSET 9.713100 17.437393 -1.325900
							CHANNELS 3 Xrotation Yrotation Zrotation
							JOINT HairC1
							{
								OFFSET 3.290300 -11.051193 1.062200
								CHANNELS 3 Xrotation Yrotation Zrotation
								End Site
								{
									OFFSET 0.000000 11.579437 0.000000
								}
							}
						}
					}
				}
				JOINT LeftShoulder
				{
					OFFSET 5.101800 15.108002 -2.763700
					CHANNELS 3 Xrotation Yrotation Zrotation
					JOINT LeftArm
					{
						OFFSET 9.825497 2.506317 -1.597400
						CHANNELS 3 Xrotation Yrotation Zrotation
						JOINT LeftForeArm
						{
							OFFSET 21.966244 0.000000 0.000000
							CHANNELS 3 Xrotation Yrotation Zrotation
							JOINT LeftHand
							{
								OFFSET 33.879036 0.000000 0.000000
								CHANNELS 3 Xrotation Yrotation Zrotation
								JOINT LeftHandThumb1
								{
									OFFSET 6.715286 -2.359680 3.363841
									CHANNELS 3 Xrotation Yrotation Zrotation
									JOINT LeftHandThumb2
									{
										OFFSET 2.507072 -1.447464 1.447461
										CHANNELS 3 Xrotation Yrotation Zrotation
										JOINT LeftHandThumb3
										{
											OFFSET 2.898338 -1.673355 1.673357
											CHANNELS 3 Xrotation Yrotation Zrotation
											End Site
											{
												OFFSET -0.295959 3.727692 -0.131651
											}
										}
									}
								}
								JOINT LeftHandIndex1
								{
									OFFSET 14.190811 -0.254547 3.840278
									CHANNELS 3 Xrotation Yrotation Zrotation
									JOINT LeftHandIndex2
									{
										OFFSET 3.551727 0.000000 -0.000000
										CHANNELS 3 Xrotation Yrotation Zrotation
										JOINT LeftHandIndex3
										{
											OFFSET 2.894196 0.000000 0.000000
											CHANNELS 3 Xrotation Yrotation Zrotation
											End Site
											{
												OFFSET -1.000603 2.690872 0.366626
											}
										}
									}
								}
								JOINT LeftHandMiddle1
								{
									OFFSET 13.776489 0.000000 0.000000
									CHANNELS 3 Xrotation Yrotation Zrotation
									JOINT LeftHandMiddle2
									{
										OFFSET 3.438232 0.000000 0.000000
										CHANNELS 3 Xrotation Yrotation Zrotation
										JOINT LeftHandMiddle3
										{
											OFFSET 3.691551 0.000000 0.000000
											CHANNELS 3 Xrotation Yrotation Zrotation
											End Site
											{
												OFFSET -1.082298 3.499527 0.457670
											}
										}
									}
								}
								JOINT LeftHandRing1
								{
									OFFSET 13.966164 -0.268127 -3.067488
									CHANNELS 3 Xrotation Yrotation Zrotation
									JOINT LeftHandRing2
									{
										OFFSET 3.162567 0.000000 0.000000
										CHANNELS 3 Xrotation Yrotation Zrotation
										JOINT LeftHandRing3
										{
											OFFSET 3.324348 0.000000 0.000000
											CHANNELS 3 Xrotation Yrotation Zrotation
											End Site
											{
												OFFSET -0.861900 3.184998 0.405154
											}
										}
									}
								}
								JOINT LeftHandPinky1
								{
									OFFSET 13.131393 -0.168503 -5.746925
									CHANNELS 3 Xrotation Yrotation Zrotation
									JOINT LeftHandPinky2
									{
										OFFSET 2.849182 0.000000 0.000000
										CHANNELS 3 Xrotation Yrotation Zrotation
										JOINT LeftHandPinky3
										{
											OFFSET 2.805038 0.000000 0.000000
											CHANNELS 3 Xrotation Yrotation Zrotation
											End Site
											{
												OFFSET -0.882500 2.642609 0.325652
											}
										}
									}
								}
							}
							JOINT Left_Sleeve
							{
								OFFSET 6.592125 -0.646545 0.805568
								CHANNELS 3 Xrotation Yrotation Zrotation
								End Site
								{
									OFFSET -0.000179 20.275787 -0.000000
								}
							}
						}
					}
				}
				JOINT RightShoulder
				{
					OFFSET -5.731700 15.108002 -2.763700
					CHANNELS 3 Xrotation Yrotation Zrotation
					JOINT RightArm
					{
						OFFSET -9.825497 2.506317 -1.597400
						CHANNELS 3 Xrotation Yrotation Zrotation
						JOINT RightForeArm
						{
							OFFSET -21.966242 0.000000 0.000000
							CHANNELS 3 Xrotation Yrotation Zrotation
							JOINT RightHand
							{
								OFFSET -33.879032 0.000000 0.000000
								CHANNELS 3 Xrotation Yrotation Zrotation
								JOINT RightHandThumb1
								{
									OFFSET -6.715286 -2.359680 3.363841
									CHANNELS 3 Xrotation Yrotation Zrotation
									JOINT RightHandThumb2
									{
										OFFSET -2.507072 -1.447464 1.447461
										CHANNELS 3 Xrotation Yrotation Zrotation
										JOINT RightHandThumb3
										{
											OFFSET -2.898338 -1.673355 1.673357
											CHANNELS 3 Xrotation Yrotation Zrotation
											End Site
											{
												OFFSET 0.295959 3.727692 -0.131651
											}
										}
									}
								}
								JOINT RightHandIndex1
								{
									OFFSET -14.190811 -0.254547 3.840278
									CHANNELS 3 Xrotation Yrotation Zrotation
									JOINT RightHandIndex2
									{
										OFFSET -3.551727 0.000000 -0.000000
										CHANNELS 3 Xrotation Yrotation Zrotation
										JOINT RightHandIndex3
										{
											OFFSET -2.894196 0.000000 0.000000
											CHANNELS 3 Xrotation Yrotation Zrotation
											End Site
											{
												OFFSET 1.000603 2.690872 0.366626
											}
										}
									}
								}
								JOINT RightHandMiddle1
								{
									OFFSET -13.776489 0.000000 0.000000
									CHANNELS 3 Xrotation Yrotation Zrotation
									JOINT RightHandMiddle2
									{
										OFFSET -3.438232 0.000000 0.000000
										CHANNELS 3 Xrotation Yrotation Zrotation
										JOINT RightHandMiddle3
										{
											OFFSET -3.691551 0.000000 0.000000
											CHANNELS 3 Xrotation Yrotation Zrotation
											End Site
											{
												OFFSET 1.082298 3.499527 0.457670
											}
										}
									}
								}
								JOINT RightHandRing1
								{
									OFFSET -13.966164 -0.268127 -3.067488
									CHANNELS 3 Xrotation Yrotation Zrotation
									JOINT RightHandRing2
									{
										OFFSET -3.162567 0.000000 0.000000
										CHANNELS 3 Xrotation Yrotation Zrotation
										JOINT RightHandRing3
										{
											OFFSET -3.324348 0.000000 0.000000
											CHANNELS 3 Xrotation Yrotation Zrotation
											End Site
											{
												OFFSET 0.861900 3.184998 0.405154
											}
										}
									}
								}
								JOINT RightHandPinky1
								{
									OFFSET -13.131393 -0.168503 -5.746925
									CHANNELS 3 Xrotation Yrotation Zrotation
									JOINT RightHandPinky2
									{
										OFFSET -2.849182 0.000000 0.000000
										CHANNELS 3 Xrotation Yrotation Zrotation
										JOINT RightHandPinky3
										{
											OFFSET -2.805038 0.000000 0.000000
											CHANNELS 3 Xrotation Yrotation Zrotation
											End Site
											{
												OFFSET 0.882500 2.642609 0.325652
											}
										}
									}
								}
							}
							JOINT Right_Sleeve
							{
								OFFSET -6.592125 -0.646545 0.805568
								CHANNELS 3 Xrotation Yrotation Zrotation
								End Site
								{
									OFFSET 0.000179 20.275787 -0.000000
								}
							}
						}
					}
				}
				JOINT Bind_Right_JacketString
				{
					OFFSET -3.534800 11.969597 7.200700
					CHANNELS 3 Xrotation Yrotation Zrotation
					JOINT Bind_Right_JacketString1
					{
						OFFSET -0.319900 -6.102600 2.794100
						CHANNELS 3 Xrotation Yrotation Zrotation
						End Site
						{
							OFFSET 0.000000 6.719452 0.000000
						}
					}
				}
				JOINT Bind_Left_JacketString
				{
					OFFSET 2.904800 11.969597 7.200700
					CHANNELS 3 Xrotation Yrotation Zrotation
					JOINT Bind_Left_JacketString1
					{
						OFFSET 0.364800 -5.904503 3.186800
						CHANNELS 3 Xrotation Yrotation Zrotation
						End Site
						{
							OFFSET 0.000000 6.719513 0.000000
						}
					}
				}
				JOINT HairE
				{
					OFFSET 5.915200 17.612701 -11.592200
					CHANNELS 3 Xrotation Yrotation Zrotation
					JOINT HairE1
					{
						OFFSET 0.289200 -7.171898 -1.284500
						CHANNELS 3 Xrotation Yrotation Zrotation
						End Site
						{
							OFFSET 0.000000 7.291756 0.000000
						}
					}
				}
				JOINT HairF
				{
					OFFSET -0.864800 17.612701 -11.592200
					CHANNELS 3 Xrotation Yrotation Zrotation
					JOINT HairF1
					{
						OFFSET 0.000000 -14.087097 -2.127501
						CHANNELS 3 Xrotation Yrotation Zrotation
						End Site
						{
							OFFSET 0.000000 14.246841 0.000000
						}
					}
				}
				JOINT HairG
				{
					OFFSET -8.087700 17.612701 -11.592200
					CHANNELS 3 Xrotation Yrotation Zrotation
					JOINT HairG1
					{
						OFFSET -0.293600 -6.081398 -0.910100
						CHANNELS 3 Xrotation Yrotation Zrotation
						End Site
						{
							OFFSET 0.000000 6.156120 0.000000
						}
					}
				}
			}
		}
	}
	JOINT Pouch
	{
		OFFSET 0.000000 4.394501 10.847300
		CHANNELS 3 Xrotation Yrotation Zrotation
		End Site
		{
			OFFSET 0.000000 21.880577 0.000000
		}
	}
	JOINT Bag
	{
		OFFSET -13.229000 4.813004 -0.593300
		CHANNELS 3 Xrotation Yrotation Zrotation
		End Site
		{
			OFFSET 0.000000 21.880577 0.000000
		}
	}
	JOINT OccupyGuyFacialAnim_Joint
	{
		OFFSET 1.000000 -70.206398 -1.655000
		CHANNELS 3 Xrotation Yrotation Zrotation
		End Site
		{
			OFFSET 0.000000 21.880577 0.000000
		}
	}
}
MOTION
Frames: 5
Frame Time: 0.016667
135.483765 9.810379 -26.205805 54.193480 205.489561 231.136880 -0.000002 0.000000 0.000001 -74.689867 11.412386 3.990782 119.260553 -3.962173 -3.220713 -10.911032 -3.224006 -6.569127 -0.000000 -0.000001 0.000003 0.000000 0.000003 0.000000 -95.759286 -4.583182 1.863108 85.132475 3.538735 2.823562 -18.308206 0.396785 16.353804 -0.000000 -0.000002 0.000001 0.000003 -0.000002 -0.000000 12.118093 2.634379 1.340131 24.200998 5.707155 2.256764 24.200989 5.707165 2.256767 56.768089 -4.708991 -18.365639 -27.541963 -9.260026 20.113302 -0.000003 0.000001 0.000002 -0.000003 0.000001 0.000002 -0.000003 0.000001 0.000003 -0.000003 0.000001 0.000003 -0.000004 0.000000 -0.000002 -0.000003 0.000001 0.000003 -0.000004 0.000000 -0.000002 -0.000003 0.000001 0.000002 -0.000003 0.000001 0.000002 0.826475 4.176656 27.061201 -21.500752 -16.600695 -7.566952 0.248520 -108.744740 0.234014 -1.960208 7.066424 19.245286 -3.269885 -2.950324 2.445900 6.363636 5.687390 -6.261551 -0.000001 0.000001 0.000000 -2.181513 1.448989 -9.293711 0.033633 0.552083 -14.681526 0.000002 0.000001 0.000002 -0.369300 0.913325 -21.544727 -0.502605 -1.800281 -26.483411 0.000000 -0.000000 0.000002 -0.931032 3.368076 -28.899186 -0.351974 -2.121509 -21.850795 -0.000001 -0.000001 -0.000000 0.523308 5.278447 -26.022915 -0.846856 -5.236645 -31.985441 -0.000001 0.000002 0.000001 0.000001 0.000003 0.000001 2.759740 8.250653 -10.588911 -57.649051 -5.834121 42.145361 0.058603 119.763378 -0.066514 30.555083 10.082320 -24.848694 6.507437 5.943988 -8.205815 0.308325 -2.673179 -2.026414 0.000003 -0.000003 -0.000001 -3.218602 0.338200 -13.313589 0.023742 0.208819 0.000023 -0.000000 -0.000000 0.000002 -2.741320 -2.097330 -13.344328 0.039705 -0.113997 0.011386 0.000000 -0.000000 0.000001 -2.221662 -6.757296 -8.023618 -0.013519 0.271974 -0.000097 0.000002 -0.000001 -0.000000 2.103460 -7.884677 4.939291 -0.291353 5.357224 14.254937 0.000001 0.000002 0.000002 0.000000 -0.000001 -0.000002 -0.000001 0.000000 -0.000000 -0.000001 0.000001 0.000001 -0.000001 0.000000 -0.000001 -0.000001 0.000000 -0.000001 -0.000001 0.000000 -0.000000 -0.000001 0.000001 0.000002 -0.000001 0.000000 -0.000001 -0.000001 0.000000 -0.000001 -0.000001 0.000000 -0.000000 -0.000001 0.000001 0.000002 -0.000002 0.000000 0.000001 -0.000002 0.000000 0.000001 -0.000002 0.000000 0.000001 
135.760880 8.696804 -26.816254 54.819597 200.169786 235.847334 0.000002 -0.000003 0.000002 -68.933370 9.832701 2.823783 119.325003 -4.230760 -3.218255 -12.105487 -4.509277 -9.155212 -0.000000 0.000000 -0.000002 0.000000 0.000000 -0.000001 -91.347770 -5.556289 1.595295 85.555093 3.660379 2.837930 -19.571789 0.122731 15.138623 0.000001 -0.000001 -0.000000 -0.000000 0.000000 0.000001 12.131766 2.735621 1.554682 24.205454 6.078914 2.810437 24.205478 6.078904 2.810423 57.480372 -3.925623 -18.447419 -25.082712 -8.467459 21.826288 -0.000002 -0.000001 0.000001 -0.000002 -0.000001 0.000001 -0.000002 -0.000001 0.000002 -0.000002 -0.000001 0.000000 0.000000 0.000000 -0.000001 -0.000002 -0.000001 0.000000 0.000000 0.000000 -0.000001 -0.000002 -0.000001 0.000001 -0.000002 -0.000001 0.000001 0.899513 3.368694 24.482581 -14.606295 -19.867055 -3.868297 0.354803 -104.424344 0.337950 -4.669645 6.592308 21.857620 -3.133894 -3.128528 2.072192 6.459735 5.436981 -6.660191 -0.000000 -0.000000 0.000001 -2.376742 1.613026 -8.894080 0.030289 0.532986 -14.400252 0.000001 0.000001 -0.000000 -0.361505 0.964860 -21.923722 -0.516449 -1.835422 -26.743240 -0.000000 0.000003 -0.000002 -0.959565 3.242976 -28.884248 -0.358824 -2.130773 -22.188209 -0.000002 0.000003 -0.000004 0.422603 4.920210 -26.484284 -0.811165 -5.130998 -31.831899 -0.000001 -0.000000 0.000001 0.000001 0.000000 -0.000002 3.074224 7.560844 -12.803210 -40.315451 -8.927965 48.040118 0.085554 116.790661 -0.090084 40.428586 7.346904 -27.686426 9.080921 6.991058 -6.854938 -0.534571 -0.974997 -1.909473 0.000000 -0.000002 -0.000004 -4.050276 -0.157098 -12.989655 0.010750 0.010869 0.000038 -0.000001 -0.000001 -0.000002 -3.380168 -2.013612 -16.151150 0.066078 -0.021678 0.003135 0.000003 -0.000002 0.000002 -4.069084 -5.491787 -3.840716 0.001737 0.401750 0.000045 0.000001 0.000000 0.000002 0.468017 -4.535786 10.858773 -0.591299 6.307200 20.037577 -0.000003 -0.000001 0.000000 -0.000001 0.000000 0.000000 -0.000002 0.000000 0.000001 -0.000000 0.000000 0.000004 -0.000002 0.000000 -0.000000 -0.000002 0.000000 -0.000000 -0.000002 0.000000 0.000001 -0.000000 0.000000 0.000004 -0.000002 0.000000 -0.000000 -0.000002 0.000000 -0.000000 -0.000002 0.000000 0.000001 -0.000000 0.000000 0.000004 0.000002 -0.000003 0.000002 0.000002 -0.000003 0.000002 0.000002 -0.000003 0.000002 
136.272995 8.068077 -27.388401 54.863597 194.640215 240.732913 0.000001 0.000001 -0.000003 -63.965664 8.478205 1.750546 119.178113 -4.498812 -3.219882 -12.611797 -4.668156 -10.546763 -0.000000 0.000002 -0.000002 0.000001 -0.000004 -0.000002 -87.348701 -5.925079 0.817907 85.602686 3.670462 2.840260 -20.661230 -0.069478 13.966904 -0.000003 0.000001 0.000001 0.000002 -0.000002 -0.000001 12.076507 2.800171 1.768737 24.076794 6.263981 3.298526 24.076796 6.263975 3.298496 58.211851 -3.060412 -17.835299 -23.111420 -7.490908 22.712645 -0.000000 0.000000 0.000000 -0.000000 0.000000 0.000000 -0.000000 0.000000 0.000001 -0.000000 0.000000 0.000002 -0.000001 -0.000001 0.000001 -0.000000 0.000000 0.000002 -0.000001 -0.000001 0.000001 -0.000000 0.000000 0.000000 -0.000000 0.000000 0.000000 1.106682 2.229523 21.865695 -8.044697 -21.912753 0.331383 0.504371 -100.515530 0.483824 -7.464040 4.378068 27.133094 -3.030159 -3.261369 1.789481 6.532174 5.246524 -6.961255 -0.000000 0.000001 0.000000 -2.566435 1.768161 -8.498500 0.026912 0.514253 -14.103368 -0.000000 0.000001 -0.000002 -0.349278 1.015428 -22.255690 -0.529866 -1.867093 -26.970424 0.000001 0.000000 0.000004 -1.000493 3.115044 -28.867699 -0.363711 -2.137669 -22.483354 -0.000001 -0.000001 -0.000004 0.306744 4.583555 -26.815808 -0.771142 -5.026537 -31.633659 -0.000000 0.000001 0.000001 -0.000001 0.000002 0.000000 3.006498 6.979988 -13.209517 -24.883259 -9.196745 51.059332 0.144362 108.653475 -0.132490 49.791611 0.108390 -33.736469 11.232873 7.962255 -5.436340 -0.991367 -0.153164 -1.907243 0.000003 0.000001 0.000004 -4.856077 -0.741973 -11.696887 -0.000002 -0.423348 0.042111 -0.000001 -0.000002 0.000003 -4.002453 -1.861603 -17.305964 0.077292 0.012105 0.000131 0.000003 -0.000005 -0.000002 -6.095271 -4.440948 1.307401 -0.008291 0.878754 3.650592 -0.000001 0.000001 -0.000000 -1.644612 -1.402747 16.800532 -0.986763 7.222206 25.836236 -0.000003 -0.000001 0.000000 -0.000002 -0.000002 -0.000003 -0.000000 0.000002 -0.000000 0.000001 0.000002 -0.000002 -0.000000 0.000002 -0.000001 -0.000000 0.000002 -0.000001 -0.000000 0.000002 -0.000000 0.000001 0.000002 -0.000002 -0.000000 0.000002 -0.000001 -0.000000 0.000002 -0.000001 -0.000000 0.000002 -0.000000 0.000001 0.000002 -0.000002 0.000001 0.000001 -0.000003 0.000001 0.000001 -0.000003 0.000001 0.000001 -0.000003 
137.233337 7.573387 -27.914007 54.378520 188.602970 245.863697 -0.000000 -0.000000 0.000001 -60.637053 7.742478 0.821102 118.560254 -4.677194 -3.224047 -11.371401 -2.925460 -9.647292 -0.000001 0.000000 -0.000003 0.000002 0.000002 0.000001 -84.584516 -5.366498 -0.633128 85.237503 3.563178 2.829518 -21.240785 0.133141 13.202661 0.000001 -0.000001 -0.000000 -0.000001 0.000001 -0.000005 11.894504 2.780116 1.953551 23.705773 6.193822 3.640064 23.705763 6.193831 3.640065 58.660274 -2.363935 -16.804099 -22.201532 -6.647937 22.500071 0.000000 0.000000 -0.000001 0.000000 0.000000 -0.000001 0.000000 0.000000 -0.000000 0.000000 0.000000 0.000000 -0.000000 -0.000000 -0.000002 0.000000 0.000000 0.000000 -0.000000 -0.000000 -0.000002 0.000000 0.000000 -0.000001 0.000000 0.000000 -0.000001 1.311806 1.043492 19.573570 -2.184757 -21.315403 2.321629 0.553466 -99.110396 0.529017 -7.420670 0.340508 36.334790 -1.617107 -3.443776 1.781909 6.670569 5.016647 -7.429608 -0.000002 -0.000000 -0.000000 -2.740592 1.901287 -8.112371 0.023654 0.496710 -13.783370 0.000000 -0.000001 0.000001 -0.335105 1.060540 -22.530899 -0.542012 -1.893766 -27.158432 -0.000000 0.000001 0.000001 -1.054358 2.979426 -28.849172 -0.366848 -2.142713 -22.727702 -0.000001 -0.000000 -0.000002 0.166339 4.266779 -27.072778 -0.732809 -4.937669 -31.470906 -0.000002 -0.000002 -0.000001 0.000001 0.000001 0.000001 2.058696 6.641518 -9.781846 -17.790264 -3.547548 48.458703 0.547424 93.753615 -0.518405 44.210886 -8.940493 -42.468924 12.926588 8.813779 -4.083789 -1.071282 -0.171218 -2.021269 0.000001 0.000001 -0.000000 -5.540305 -1.397979 -9.917194 0.014409 -0.663871 4.501016 -0.000001 -0.000001 0.000004 -4.569638 -1.700302 -16.210593 0.061357 -0.036741 0.004469 0.000001 0.000001 0.000001 -8.208121 -3.920785 6.976349 -0.122030 1.728498 11.591776 0.000000 -0.000001 0.000000 -4.173464 1.073050 22.333074 -1.431504 8.024079 31.180920 0.000001 0.000004 -0.000001 -0.000001 0.000001 -0.000001 0.000003 0.000000 -0.000001 0.000003 -0.000001 0.000001 0.000003 0.000000 -0.000002 0.000003 0.000000 -0.000002 0.000003 0.000000 -0.000001 0.000003 -0.000001 0.000001 0.000003 0.000000 -0.000002 0.000003 0.000000 -0.000002 0.000003 0.000000 -0.000001 0.000003 -0.000001 0.000001 -0.000000 -0.000000 0.000001 -0.000000 -0.000000 0.000001 -0.000000 -0.000000 0.000001 
138.416656 7.459446 -28.378500 53.395953 182.428096 251.244984 0.000000 -0.000002 0.000001 -60.073133 9.275337 0.010747 116.913004 -5.386055 -3.261631 -6.849360 0.204168 -4.807857 0.000001 0.000001 -0.000002 0.000003 -0.000003 -0.000001 -82.604588 -4.240217 -2.253862 84.731714 3.390455 2.812545 -21.601829 0.519295 12.754870 0.000001 0.000002 0.000001 -0.000001 0.000002 0.000003 11.640241 2.743322 2.091905 23.202417 6.009126 3.780220 23.202438 6.009108 3.780215 59.079777 -1.919153 -15.677910 -22.416052 -6.248910 21.959687 0.000000 -0.000000 -0.000001 0.000000 -0.000000 -0.000001 0.000000 -0.000000 0.000001 0.000000 -0.000000 0.000001 -0.000000 -0.000000 -0.000002 0.000000 -0.000000 0.000001 -0.000000 -0.000000 -0.000002 0.000000 -0.000000 -0.000001 0.000000 -0.000000 -0.000001 1.507321 -0.163537 17.453264 3.550723 -20.408016 2.406286 0.553984 -97.715978 0.525461 -5.890163 -2.890355 45.326682 -2.940804 -3.372797 1.547782 6.593745 5.083134 -7.218139 0.000000 -0.000002 0.000001 -2.919276 2.045302 -7.736690 0.020063 0.478072 -13.432722 0.000001 0.000001 -0.000003 -0.310782 1.112145 -22.741139 -0.554284 -1.917303 -27.300524 0.000002 -0.000000 -0.000001 -1.127501 2.843584 -28.828852 -0.366373 -2.142771 -22.912998 -0.000001 0.000003 -0.000004 0.036944 3.978734 -27.017672 -0.677040 -4.822586 -31.069902 -0.000002 0.000000 -0.000002 0.000001 0.000000 -0.000002 0.825815 6.417770 -5.156969 -13.761724 2.862439 43.332452 -0.079393 78.665058 0.117751 33.684837 -16.385859 -50.901329 14.148104 9.491826 -2.937724 -1.139213 -0.187484 -2.112722 0.000002 -0.000002 0.000002 -6.049911 -2.044524 -7.737824 0.054012 -0.889722 10.547830 -0.000001 0.000001 -0.000001 -5.030712 -1.571706 -13.469562 0.030813 -0.151127 0.014728 0.000002 -0.000003 0.000000 -10.124611 -3.784051 12.664111 -0.352237 2.554369 19.539009 -0.000002 -0.000003 -0.000002 -6.549032 2.912789 26.921476 -1.853917 8.651210 35.595056 0.000002 0.000001 -0.000006 0.000000 0.000001 -0.000001 -0.000000 0.000000 -0.000001 -0.000000 0.000001 -0.000003 -0.000000 0.000000 -0.000001 -0.000000 0.000000 -0.000001 -0.000000 0.000000 -0.000001 -0.000000 0.000001 -0.000003 -0.000000 0.000000 -0.000001 -0.000000 0.000000 -0.000001 -0.000000 0.000000 -0.000001 -0.000000 0.000001 -0.000003 0.000000 -0.000002 0.000001 0.000000 -0.000002 0.000001 0.000000 -0.000002 0.000001 
